# WaveFront *.obj file (generated by Autodesk ATF)

mtllib Dovetail wedge Top.mtl

g Dovetail wedge Top

v -0.100000 -65.000000 157.000000
v -19.900000 -65.000000 151.225000
v -19.900000 -55.000000 151.225000
v -0.100000 -55.000000 157.000000
v 0.100000 -65.000000 157.000000
v 0.100000 -55.000000 157.000000
v 19.900000 -65.000000 151.225000
v 19.900000 -55.000000 151.225000
v 19.900000 -65.000000 170.507000
v 19.900000 -55.000000 170.507000
v 12.124000 -65.000000 170.507000
v 12.124000 -55.000000 170.507000
v 0.100000 -65.000000 167.000000
v 0.100000 -55.000000 167.000000
v -0.100000 -65.000000 167.000000
v -0.100000 -55.000000 167.000000
v -12.124000 -65.000000 170.507000
v -12.124000 -55.000000 170.507000
v -19.900000 -65.000000 170.507000
v -19.900000 -55.000000 170.507000
vt -0.000000 0.000000 0.000000
vt 2.062500 0.000000 0.000000
vt -0.000000 1.000000 0.000000
vt 2.062500 1.000000 0.000000
vt -0.000000 0.000000 0.000000
vt 0.020000 0.000000 0.000000
vt -0.000000 1.000000 0.000000
vt 0.020000 1.000000 0.000000
vt 0.000000 0.000000 0.000000
vt 2.062500 0.000000 0.000000
vt 0.000000 1.000000 0.000000
vt 2.062500 1.000000 0.000000
vt 0.000000 0.000000 0.000000
vt 1.928200 0.000000 0.000000
vt 0.000000 1.000000 0.000000
vt 1.928200 1.000000 0.000000
vt 0.000000 0.000000 0.000000
vt 0.777600 0.000000 0.000000
vt -0.000000 1.000000 0.000000
vt 0.777600 1.000000 0.000000
vt 0.000000 0.000000 0.000000
vt 1.252500 0.000000 0.000000
vt 0.000000 1.000000 0.000000
vt 1.252500 1.000000 0.000000
vt -0.000000 0.000000 0.000000
vt 0.020000 0.000000 0.000000
vt 0.000000 1.000000 0.000000
vt 0.020000 1.000000 0.000000
vt 0.000000 0.000000 0.000000
vt 1.252500 0.000000 0.000000
vt 0.000000 1.000000 0.000000
vt 1.252500 1.000000 0.000000
vt 0.000000 0.000000 0.000000
vt 0.777600 0.000000 0.000000
vt 0.000000 1.000000 0.000000
vt 0.777600 1.000000 0.000000
vt 0.000000 0.000000 0.000000
vt 1.928200 0.000000 0.000000
vt 0.000000 1.000000 0.000000
vt 1.928200 1.000000 0.000000
vt 0.964100 -1.990000 0.000000
vt 0.964100 -1.212400 0.000000
vt -0.964100 -1.990000 0.000000
vt 0.613400 -0.010000 0.000000
vt -0.386600 -0.010000 0.000000
vt -0.386600 0.010000 0.000000
vt 0.613400 0.010000 0.000000
vt 0.964100 1.212400 0.000000
vt 0.964100 1.990000 0.000000
vt -0.964100 1.990000 0.000000
vt -1.990000 0.964100 0.000000
vt -1.990000 -0.964100 0.000000
vt -1.212400 0.964100 0.000000
vt -0.010000 0.613400 0.000000
vt -0.010000 -0.386600 0.000000
vt 0.010000 -0.386600 0.000000
vt 0.010000 0.613400 0.000000
vt 1.990000 -0.964100 0.000000
vt 1.212400 0.964100 0.000000
vt 1.990000 0.964100 0.000000
vn 0.028000 0.000000 -0.096000
vn 0.028000 0.000000 -0.096000
vn 0.028000 0.000000 -0.096000
vn 0.028000 0.000000 -0.096000
vn 0.000000 0.000000 -0.100000
vn 0.000000 0.000000 -0.100000
vn 0.000000 0.000000 -0.100000
vn 0.000000 0.000000 -0.100000
vn -0.028000 0.000000 -0.096000
vn -0.028000 0.000000 -0.096000
vn -0.028000 0.000000 -0.096000
vn -0.028000 0.000000 -0.096000
vn 0.100000 -0.000000 0.000000
vn 0.100000 -0.000000 0.000000
vn 0.100000 -0.000000 0.000000
vn 0.100000 -0.000000 0.000000
vn -0.000000 0.000000 0.100000
vn -0.000000 0.000000 0.100000
vn -0.000000 0.000000 0.100000
vn -0.000000 0.000000 0.100000
vn -0.028000 0.000000 0.096000
vn -0.028000 0.000000 0.096000
vn -0.028000 0.000000 0.096000
vn -0.028000 0.000000 0.096000
vn 0.000000 -0.000000 0.100000
vn 0.000000 -0.000000 0.100000
vn 0.000000 -0.000000 0.100000
vn 0.000000 -0.000000 0.100000
vn 0.028000 -0.000000 0.096000
vn 0.028000 -0.000000 0.096000
vn 0.028000 -0.000000 0.096000
vn 0.028000 -0.000000 0.096000
vn 0.000000 0.000000 0.100000
vn 0.000000 0.000000 0.100000
vn 0.000000 0.000000 0.100000
vn 0.000000 0.000000 0.100000
vn -0.100000 0.000000 0.000000
vn -0.100000 0.000000 0.000000
vn -0.100000 0.000000 0.000000
vn -0.100000 0.000000 0.000000
vn 0.000000 0.100000 0.000000
vn 0.000000 0.100000 0.000000
vn 0.000000 0.100000 0.000000
vn 0.000000 0.100000 0.000000
vn 0.000000 0.100000 0.000000
vn 0.000000 0.100000 0.000000
vn 0.000000 0.100000 0.000000
vn 0.000000 0.100000 0.000000
vn 0.000000 0.100000 0.000000
vn 0.000000 0.100000 0.000000
vn 0.000000 -0.100000 0.000000
vn 0.000000 -0.100000 0.000000
vn 0.000000 -0.100000 0.000000
vn 0.000000 -0.100000 0.000000
vn 0.000000 -0.100000 0.000000
vn 0.000000 -0.100000 0.000000
vn 0.000000 -0.100000 0.000000
vn 0.000000 -0.100000 0.000000
vn 0.000000 -0.100000 0.000000
vn 0.000000 -0.100000 0.000000
usemtl Steel_-_Satin
f 1/1/1 2/2/2 4/3/3
f 4/3/3 2/2/2 3/4/4
f 5/5/5 1/6/6 6/7/7
f 6/7/7 1/6/6 4/8/8
f 7/9/9 5/10/10 8/11/11
f 8/11/11 5/10/10 6/12/12
f 9/13/13 7/14/14 10/15/15
f 10/15/15 7/14/14 8/16/16
f 11/17/17 9/18/18 12/19/19
f 12/19/19 9/18/18 10/20/20
f 13/21/21 11/22/22 14/23/23
f 14/23/23 11/22/22 12/24/24
f 15/25/25 13/26/26 16/27/27
f 16/27/27 13/26/26 14/28/28
f 17/29/29 15/30/30 18/31/31
f 18/31/31 15/30/30 16/32/32
f 19/33/33 17/34/34 20/35/35
f 20/35/35 17/34/34 18/36/36
f 2/37/37 19/38/38 3/39/39
f 3/39/39 19/38/38 20/40/40
f 20/41/41 18/42/42 3/43/43
f 3/43/43 18/42/42 16/44/44
f 3/43/43 16/44/44 4/45/45
f 4/45/45 16/44/44 6/46/46
f 6/46/46 16/44/44 14/47/47
f 6/46/46 14/47/47 12/48/48
f 12/48/48 10/49/49 6/46/46
f 6/46/46 10/49/49 8/50/50
f 19/51/51 2/52/52 17/53/53
f 17/53/53 2/52/52 15/54/54
f 15/54/54 2/52/52 1/55/55
f 15/54/54 1/55/55 5/56/56
f 15/54/54 5/56/56 13/57/57
f 13/57/57 5/56/56 7/58/58
f 13/57/57 7/58/58 11/59/59
f 11/59/59 7/58/58 9/60/60
# 20 vertices
# 60 texture params
# 60 normals
# 36 facets

# 1 groups
