# WaveFront *.obj file (generated by Autodesk ATF)

mtllib Right.mtl

g Body20

v 75.157295 147.444770 180.000000
v 75.157295 147.444770 0.000000
v 83.264011 150.994935 0.000000
v 83.264011 150.994935 180.000000
v 70.428988 143.794342 0.000000
v 70.428988 143.794342 180.000000
v 70.364635 144.912856 180.000000
v 70.509348 146.023834 180.000000
v 70.858082 147.088540 180.000000
v 71.398678 148.069850 180.000000
v 72.112286 148.933550 180.000000
v 72.974026 149.649524 180.000000
v 73.953850 150.192809 180.000000
v 73.953850 150.192809 0.000000
v 72.974026 149.649524 0.000000
v 72.112286 148.933550 0.000000
v 71.398678 148.069850 0.000000
v 70.858082 147.088540 0.000000
v 70.509348 146.023834 0.000000
v 70.364635 144.912856 0.000000
v 70.374282 145.099599 154.285714
v 70.374282 145.099599 128.571429
v 70.374282 145.099599 102.857143
v 70.374282 145.099599 77.142857
v 70.374282 145.099599 51.428571
v 70.374282 145.099599 25.714286
v 70.603381 146.385756 154.285714
v 70.603381 146.385756 128.571429
v 70.603381 146.385756 102.857143
v 70.603381 146.385756 77.142857
v 70.603381 146.385756 51.428571
v 70.603381 146.385756 25.714286
v 71.105426 147.591840 154.285714
v 71.105426 147.591840 128.571429
v 71.105426 147.591840 102.857143
v 71.105426 147.591840 77.142857
v 71.105426 147.591840 51.428571
v 71.105426 147.591840 25.714286
v 71.856614 148.660673 154.285714
v 71.856614 148.660673 128.571429
v 71.856614 148.660673 102.857143
v 71.856614 148.660673 77.142857
v 71.856614 148.660673 51.428571
v 71.856614 148.660673 25.714286
v 72.821334 149.541584 154.285714
v 72.821334 149.541584 128.571429
v 72.821334 149.541584 102.857143
v 72.821334 149.541584 77.142857
v 72.821334 149.541584 51.428571
v 72.821334 149.541584 25.714286
v 82.060565 153.742974 0.000000
v 82.060565 153.742974 180.000000
v 87.740353 30.000000 180.000000
v 90.774869 30.000000 180.000000
v 73.394865 144.245537 180.000000
v 73.379147 145.028536 180.000000
v 73.566620 145.788924 180.000000
v 73.944507 146.474880 180.000000
v 74.487057 147.039658 180.000000
v 90.774869 30.000000 0.000000
v 73.394865 144.245537 0.000000
v 73.379147 145.028536 0.000000
v 73.566620 145.788924 0.000000
v 73.944507 146.474880 0.000000
v 74.487057 147.039658 0.000000
v 73.379147 145.028536 16.363636
v 73.379147 145.028536 32.727273
v 73.379147 145.028536 49.090909
v 73.379147 145.028536 65.454545
v 73.379147 145.028536 81.818182
v 73.379147 145.028536 98.181818
v 73.379147 145.028536 114.545455
v 73.379147 145.028536 130.909091
v 73.379147 145.028536 147.272727
v 73.379147 145.028536 163.636364
v 73.566620 145.788924 16.363636
v 73.566620 145.788924 32.727273
v 73.566620 145.788924 49.090909
v 73.566620 145.788924 65.454545
v 73.566620 145.788924 81.818182
v 73.566620 145.788924 98.181818
v 73.566620 145.788924 114.545455
v 73.566620 145.788924 130.909091
v 73.566620 145.788924 147.272727
v 73.566620 145.788924 163.636364
v 73.944507 146.474880 16.363636
v 73.944507 146.474880 32.727273
v 73.944507 146.474880 49.090909
v 73.944507 146.474880 65.454545
v 73.944507 146.474880 81.818182
v 73.944507 146.474880 98.181818
v 73.944507 146.474880 114.545455
v 73.944507 146.474880 130.909091
v 73.944507 146.474880 147.272727
v 73.944507 146.474880 163.636364
v 74.487057 147.039658 16.363636
v 74.487057 147.039658 32.727273
v 74.487057 147.039658 49.090909
v 74.487057 147.039658 65.454545
v 74.487057 147.039658 81.818182
v 74.487057 147.039658 98.181818
v 74.487057 147.039658 114.545455
v 74.487057 147.039658 130.909091
v 74.487057 147.039658 147.272727
v 74.487057 147.039658 163.636364
v 87.740353 30.000000 0.000000
vt -7.135500 9.000000 0.000000
vt -8.020500 9.000000 0.000000
vt -7.135500 -9.000000 0.000000
vt -8.020500 -9.000000 0.000000
vt 9.000000 0.785398 0.000000
vt -9.000000 0.785398 0.000000
vt 9.000000 0.673198 0.000000
vt 3.857143 0.654498 0.000000
vt 6.428571 0.654498 0.000000
vt 6.428571 0.523599 0.000000
vt 9.000000 0.560999 0.000000
vt 9.000000 0.448799 0.000000
vt 6.428571 0.392699 0.000000
vt 9.000000 0.336599 0.000000
vt 6.428571 0.261799 0.000000
vt 9.000000 0.224399 0.000000
vt 6.428571 0.130900 0.000000
vt 9.000000 0.112200 0.000000
vt 9.000000 0.000000 0.000000
vt 3.857143 0.130900 0.000000
vt 1.285714 0.130900 0.000000
vt 1.285714 0.261799 0.000000
vt -1.285714 0.261799 0.000000
vt -1.285714 0.392699 0.000000
vt -3.857143 0.392699 0.000000
vt -3.857143 0.523599 0.000000
vt -6.428571 0.523599 0.000000
vt -6.428571 0.654498 0.000000
vt -9.000000 0.560999 0.000000
vt -9.000000 0.673198 0.000000
vt -3.857143 0.654498 0.000000
vt -1.285714 0.654498 0.000000
vt -1.285714 0.523599 0.000000
vt 1.285714 0.523599 0.000000
vt 1.285714 0.392699 0.000000
vt 3.857143 0.392699 0.000000
vt 3.857143 0.261799 0.000000
vt -9.000000 0.448799 0.000000
vt -6.428571 0.392699 0.000000
vt -3.857143 0.261799 0.000000
vt -1.285714 0.130900 0.000000
vt -9.000000 0.336599 0.000000
vt -6.428571 0.261799 0.000000
vt -3.857143 0.130900 0.000000
vt -9.000000 0.224399 0.000000
vt -6.428571 0.130900 0.000000
vt -9.000000 0.112200 0.000000
vt -9.000000 0.000000 0.000000
vt 1.285714 0.654498 0.000000
vt 3.857143 0.523599 0.000000
vt -18.000000 0.000000 0.000000
vt -0.000000 0.000000 0.000000
vt -18.000000 0.300000 0.000000
vt 0.000000 0.300000 0.000000
vt -13.006484 -0.000000 0.000000
vt -1.450487 0.000000 0.000000
vt -12.960845 0.300000 0.000000
vt -1.450487 0.300000 0.000000
vt -1.131267 0.208035 0.000000
vt -1.231282 0.258524 0.000000
vt -1.372841 -0.010222 0.000000
vt -0.967728 0.056292 0.000000
vt -1.042383 0.139831 0.000000
vt -0.909905 -0.039670 0.000000
vt -1.300487 -0.040192 0.000000
vt -1.238355 -0.087868 0.000000
vt -0.870931 -0.144709 0.000000
vt -1.190679 -0.150000 0.000000
vt -1.160709 -0.222354 0.000000
vt -0.931654 -1.077199 0.000000
vt -0.641876 -0.999553 0.000000
vt -1.338940 0.289540 0.000000
vt 7.135500 -9.000000 0.000000
vt 8.020500 -9.000000 0.000000
vt 7.135500 9.000000 0.000000
vt 8.020500 9.000000 0.000000
vt 4.985984 9.000000 0.000000
vt -6.570013 9.000000 0.000000
vt 4.985984 -9.000000 0.000000
vt -6.570013 -9.000000 0.000000
vt -9.000000 0.392699 0.000000
vt 0.818182 0.314159 0.000000
vt 9.000000 0.392699 0.000000
vt 2.454545 0.314159 0.000000
vt 4.090909 0.314159 0.000000
vt 4.090909 0.235619 0.000000
vt 5.727273 0.235619 0.000000
vt 5.727273 0.157080 0.000000
vt 7.363636 0.157080 0.000000
vt 7.363636 0.078540 0.000000
vt 9.000000 0.078540 0.000000
vt 9.000000 0.000000 0.000000
vt 5.727273 0.078540 0.000000
vt 4.090909 0.078540 0.000000
vt 4.090909 0.157080 0.000000
vt 2.454545 0.157080 0.000000
vt 2.454545 0.235619 0.000000
vt 0.818182 0.235619 0.000000
vt -0.818182 0.314159 0.000000
vt -2.454545 0.314159 0.000000
vt -4.090909 0.314159 0.000000
vt -2.454545 0.235619 0.000000
vt -4.090909 0.235619 0.000000
vt -2.454545 0.157080 0.000000
vt -4.090909 0.157080 0.000000
vt -2.454545 0.078540 0.000000
vt -4.090909 0.078540 0.000000
vt -9.000000 0.000000 0.000000
vt -5.727273 0.078540 0.000000
vt -7.363636 0.078540 0.000000
vt -7.363636 0.157080 0.000000
vt -9.000000 0.157080 0.000000
vt -9.000000 0.235619 0.000000
vt -7.363636 0.235619 0.000000
vt -9.000000 0.314159 0.000000
vt -7.363636 0.314159 0.000000
vt -5.727273 0.314159 0.000000
vt -9.000000 0.078540 0.000000
vt -0.818182 0.078540 0.000000
vt 0.818182 0.078540 0.000000
vt 2.454545 0.078540 0.000000
vt 0.818182 0.157080 0.000000
vt 9.000000 0.157080 0.000000
vt 7.363636 0.235619 0.000000
vt 5.727273 0.314159 0.000000
vt 9.000000 0.235619 0.000000
vt 7.363636 0.314159 0.000000
vt 9.000000 0.314159 0.000000
vt -5.727273 0.235619 0.000000
vt -5.727273 0.157080 0.000000
vt -0.818182 0.235619 0.000000
vt -0.818182 0.157080 0.000000
vt -3.034516 -0.000000 0.000000
vt -3.080155 0.300000 0.000000
vt -14.590513 0.000000 0.000000
vt -14.590513 0.300000 0.000000
vt -14.909733 0.208035 0.000000
vt -14.809718 0.258524 0.000000
vt -14.702060 0.289540 0.000000
vt -14.998617 0.139831 0.000000
vt -15.073272 0.056292 0.000000
vt -14.668159 -0.010222 0.000000
vt -15.131095 -0.039670 0.000000
vt -14.740513 -0.040192 0.000000
vt -14.802645 -0.087868 0.000000
vt -15.170069 -0.144709 0.000000
vt -14.850321 -0.150000 0.000000
vt -14.880291 -0.222354 0.000000
vt -15.399124 -0.999553 0.000000
vt -15.109346 -1.077199 0.000000
vt -4.940345 -9.000000 0.000000
vt 6.570013 -9.000000 0.000000
vt -4.940345 9.000000 0.000000
vt 6.570013 9.000000 0.000000
vt -9.000000 -11.068792 0.000000
vt 9.000000 -11.068792 0.000000
vt -9.000000 -10.765340 0.000000
vt 9.000000 -10.765340 0.000000
vn 0.040115 -0.091601 0.000000
vn 0.040115 -0.091601 0.000000
vn 0.040115 -0.091601 0.000000
vn 0.040115 -0.091601 0.000000
vn -0.098863 -0.015040 -0.000000
vn -0.098863 -0.015040 -0.000000
vn -0.099935 0.003602 -0.000000
vn -0.099774 0.006714 -0.000000
vn -0.099774 0.006714 -0.000000
vn -0.095956 0.028150 -0.000000
vn -0.097523 0.022118 -0.000000
vn -0.091711 0.039863 -0.000000
vn -0.087589 0.048252 -0.000000
vn -0.082701 0.056219 -0.000000
vn -0.075069 0.066066 -0.000000
vn -0.070808 0.070614 -0.000000
vn -0.058990 0.080748 -0.000000
vn -0.056445 0.082547 -0.000000
vn -0.040115 0.091601 -0.000000
vn -0.058990 0.080748 -0.000000
vn -0.058990 0.080748 -0.000000
vn -0.075069 0.066066 -0.000000
vn -0.075069 0.066066 -0.000000
vn -0.087589 0.048252 -0.000000
vn -0.087589 0.048252 -0.000000
vn -0.095956 0.028150 -0.000000
vn -0.095956 0.028150 -0.000000
vn -0.099774 0.006714 -0.000000
vn -0.097523 0.022118 -0.000000
vn -0.099935 0.003602 -0.000000
vn -0.099774 0.006714 -0.000000
vn -0.099774 0.006714 -0.000000
vn -0.095956 0.028150 -0.000000
vn -0.095956 0.028150 -0.000000
vn -0.087589 0.048252 -0.000000
vn -0.087589 0.048252 -0.000000
vn -0.075069 0.066066 -0.000000
vn -0.091711 0.039863 -0.000000
vn -0.087589 0.048252 -0.000000
vn -0.075069 0.066066 -0.000000
vn -0.058990 0.080748 -0.000000
vn -0.082701 0.056219 -0.000000
vn -0.075069 0.066066 -0.000000
vn -0.058990 0.080748 -0.000000
vn -0.070808 0.070614 -0.000000
vn -0.058990 0.080748 -0.000000
vn -0.056445 0.082547 -0.000000
vn -0.040115 0.091601 -0.000000
vn -0.099774 0.006714 -0.000000
vn -0.095956 0.028150 -0.000000
vn 0.091601 0.040115 -0.000000
vn 0.091601 0.040115 -0.000000
vn 0.091601 0.040115 -0.000000
vn 0.091601 0.040115 -0.000000
vn -0.000000 0.000000 0.100000
vn -0.000000 0.000000 0.100000
vn -0.000000 0.000000 0.100000
vn -0.000000 0.000000 0.100000
vn -0.000000 0.000000 0.100000
vn -0.000000 0.000000 0.100000
vn -0.000000 0.000000 0.100000
vn -0.000000 0.000000 0.100000
vn -0.000000 0.000000 0.100000
vn -0.000000 0.000000 0.100000
vn -0.000000 0.000000 0.100000
vn -0.000000 0.000000 0.100000
vn -0.000000 0.000000 0.100000
vn -0.000000 0.000000 0.100000
vn -0.000000 0.000000 0.100000
vn -0.000000 0.000000 0.100000
vn -0.000000 0.000000 0.100000
vn -0.000000 0.000000 0.100000
vn -0.040115 0.091601 0.000000
vn -0.040115 0.091601 0.000000
vn 0.098863 0.015040 0.000000
vn 0.098863 0.015040 0.000000
vn 0.098863 0.015040 0.000000
vn 0.098863 0.015040 0.000000
vn 0.099386 -0.011060 0.000000
vn 0.099386 -0.011060 0.000000
vn 0.099386 -0.011060 0.000000
vn 0.093137 -0.036406 0.000000
vn 0.093137 -0.036406 0.000000
vn 0.080541 -0.059272 0.000000
vn 0.080541 -0.059272 0.000000
vn 0.062456 -0.078098 0.000000
vn 0.062456 -0.078098 0.000000
vn 0.062456 -0.078098 0.000000
vn 0.062456 -0.078098 0.000000
vn 0.080541 -0.059272 0.000000
vn 0.080541 -0.059272 0.000000
vn 0.093137 -0.036406 0.000000
vn 0.093137 -0.036406 0.000000
vn 0.099386 -0.011060 0.000000
vn 0.099386 -0.011060 0.000000
vn 0.099386 -0.011060 0.000000
vn 0.093137 -0.036406 0.000000
vn 0.093137 -0.036406 0.000000
vn 0.080541 -0.059272 0.000000
vn 0.080541 -0.059272 0.000000
vn 0.062456 -0.078098 0.000000
vn 0.062456 -0.078098 0.000000
vn 0.062456 -0.078098 0.000000
vn 0.062456 -0.078098 0.000000
vn 0.080541 -0.059272 0.000000
vn 0.080541 -0.059272 0.000000
vn 0.093137 -0.036406 0.000000
vn 0.093137 -0.036406 0.000000
vn 0.099386 -0.011060 0.000000
vn 0.099386 -0.011060 0.000000
vn 0.099386 -0.011060 0.000000
vn 0.062456 -0.078098 0.000000
vn 0.062456 -0.078098 0.000000
vn 0.062456 -0.078098 0.000000
vn 0.062456 -0.078098 0.000000
vn 0.080541 -0.059272 0.000000
vn 0.080541 -0.059272 0.000000
vn 0.093137 -0.036406 0.000000
vn 0.099386 -0.011060 0.000000
vn 0.093137 -0.036406 0.000000
vn 0.099386 -0.011060 0.000000
vn 0.099386 -0.011060 0.000000
vn 0.093137 -0.036406 0.000000
vn 0.080541 -0.059272 0.000000
vn 0.093137 -0.036406 0.000000
vn 0.080541 -0.059272 0.000000
vn 0.000000 -0.000000 -0.100000
vn 0.000000 -0.000000 -0.100000
vn 0.000000 -0.000000 -0.100000
vn 0.000000 -0.000000 -0.100000
vn 0.000000 -0.000000 -0.100000
vn 0.000000 -0.000000 -0.100000
vn 0.000000 -0.000000 -0.100000
vn 0.000000 -0.000000 -0.100000
vn 0.000000 -0.000000 -0.100000
vn 0.000000 -0.000000 -0.100000
vn 0.000000 -0.000000 -0.100000
vn 0.000000 -0.000000 -0.100000
vn 0.000000 -0.000000 -0.100000
vn 0.000000 -0.000000 -0.100000
vn 0.000000 -0.000000 -0.100000
vn 0.000000 -0.000000 -0.100000
vn 0.000000 -0.000000 -0.100000
vn 0.000000 -0.000000 -0.100000
vn -0.098863 -0.015040 -0.000000
vn -0.098863 -0.015040 -0.000000
vn 0.000000 -0.100000 0.000000
vn 0.000000 -0.100000 0.000000
vn 0.000000 -0.100000 0.000000
vn 0.000000 -0.100000 0.000000
usemtl Steel_-_Satin
f 2/1/1 3/2/2 1/3/3
f 1/3/3 3/2/2 4/4/4
f 5/5/5 6/6/6 20/7/7
f 20/7/7 6/6/6 25/8/8
f 20/7/7 25/8/8 26/9/9
f 26/9/9 25/8/8 32/10/10
f 26/9/9 32/10/10 19/11/11
f 19/11/11 32/10/10 18/12/12
f 18/12/12 32/10/10 38/13/13
f 18/12/12 38/13/13 17/14/14
f 17/14/14 38/13/13 44/15/15
f 17/14/14 44/15/15 16/16/16
f 16/16/16 44/15/15 50/17/17
f 16/16/16 50/17/17 15/18/18
f 15/18/18 50/17/17 14/19/19
f 14/19/19 50/17/17 49/20/20
f 14/19/19 49/20/20 48/21/21
f 48/21/21 49/20/20 42/22/22
f 48/21/21 42/22/22 41/23/23
f 41/23/23 42/22/22 35/24/24
f 41/23/23 35/24/24 34/25/25
f 34/25/25 35/24/24 28/26/26
f 34/25/25 28/26/26 27/27/27
f 27/27/27 28/26/26 21/28/28
f 27/27/27 21/28/28 8/29/29
f 8/29/29 21/28/28 7/30/30
f 7/30/30 21/28/28 6/6/6
f 6/6/6 21/28/28 22/31/31
f 6/6/6 22/31/31 23/32/32
f 23/32/32 22/31/31 29/33/33
f 23/32/32 29/33/33 30/34/34
f 30/34/34 29/33/33 36/35/35
f 30/34/34 36/35/35 37/36/36
f 37/36/36 36/35/35 43/37/37
f 37/36/36 43/37/37 44/15/15
f 44/15/15 43/37/37 50/17/17
f 8/29/29 9/38/38 27/27/27
f 27/27/27 9/38/38 33/39/39
f 27/27/27 33/39/39 34/25/25
f 34/25/25 33/39/39 40/40/40
f 34/25/25 40/40/40 41/23/23
f 41/23/23 40/40/40 47/41/41
f 41/23/23 47/41/41 48/21/21
f 48/21/21 47/41/41 14/19/19
f 9/38/38 10/42/42 33/39/39
f 33/39/39 10/42/42 39/43/43
f 33/39/39 39/43/43 40/40/40
f 40/40/40 39/43/43 46/44/44
f 40/40/40 46/44/44 47/41/41
f 47/41/41 46/44/44 14/19/19
f 10/42/42 11/45/45 39/43/43
f 39/43/43 11/45/45 45/46/46
f 39/43/43 45/46/46 46/44/44
f 46/44/44 45/46/46 12/47/47
f 46/44/44 12/47/47 14/19/19
f 14/19/19 12/47/47 13/48/48
f 11/45/45 12/47/47 45/46/46
f 19/11/11 20/7/7 26/9/9
f 29/33/33 22/31/31 28/26/26
f 28/26/26 22/31/31 21/28/28
f 25/8/8 6/6/6 24/49/49
f 24/49/49 6/6/6 23/32/32
f 24/49/49 23/32/32 30/34/34
f 25/8/8 24/49/49 31/50/50
f 31/50/50 24/49/49 30/34/34
f 31/50/50 30/34/34 37/36/36
f 36/35/35 29/33/33 35/24/24
f 35/24/24 29/33/33 28/26/26
f 38/13/13 32/10/10 31/50/50
f 31/50/50 32/10/10 25/8/8
f 38/13/13 31/50/50 37/36/36
f 43/37/37 36/35/35 42/22/22
f 42/22/22 36/35/35 35/24/24
f 44/15/15 38/13/13 37/36/36
f 50/17/17 43/37/37 49/20/20
f 49/20/20 43/37/37 42/22/22
f 4/51/51 3/52/52 52/53/53
f 52/53/53 3/52/52 51/54/54
f 54/55/55 55/56/56 53/57/57
f 53/57/57 55/56/56 6/58/58
f 6/58/58 55/56/56 9/59/59
f 6/58/58 9/59/59 8/60/60
f 56/61/61 11/62/62 55/56/56
f 55/56/56 11/62/62 10/63/63
f 55/56/56 10/63/63 9/59/59
f 11/62/62 56/61/61 12/64/64
f 12/64/64 56/61/61 57/65/65
f 12/64/64 57/65/65 58/66/66
f 12/64/64 58/66/66 13/67/67
f 13/67/67 58/66/66 59/68/68
f 13/67/67 59/68/68 1/69/69
f 4/70/70 52/71/71 1/69/69
f 1/69/69 52/71/71 13/67/67
f 8/60/60 7/72/72 6/58/58
f 13/73/48 52/74/73 14/75/19
f 14/75/19 52/74/73 51/76/74
f 60/77/75 61/78/76 54/79/77
f 54/79/77 61/78/76 55/80/78
f 61/81/76 71/82/79 55/83/78
f 55/83/78 71/82/79 72/84/80
f 55/83/78 72/84/80 73/85/81
f 73/85/81 72/84/80 83/86/82
f 73/85/81 83/86/82 84/87/83
f 84/87/83 83/86/82 94/88/84
f 84/87/83 94/88/84 95/89/85
f 95/89/85 94/88/84 105/90/86
f 95/89/85 105/90/86 59/91/87
f 59/91/87 105/90/86 1/92/3
f 1/92/3 105/90/86 104/93/88
f 1/92/3 104/93/88 103/94/89
f 103/94/89 104/93/88 93/95/90
f 103/94/89 93/95/90 92/96/91
f 92/96/91 93/95/90 82/97/92
f 92/96/91 82/97/92 81/98/93
f 81/98/93 82/97/92 71/82/79
f 81/98/93 71/82/79 70/99/94
f 70/99/94 71/82/79 61/81/76
f 70/99/94 61/81/76 69/100/95
f 69/100/95 61/81/76 68/101/96
f 69/100/95 68/101/96 79/102/97
f 79/102/97 68/101/96 78/103/98
f 79/102/97 78/103/98 89/104/99
f 89/104/99 78/103/98 88/105/100
f 89/104/99 88/105/100 99/106/101
f 99/106/101 88/105/100 98/107/102
f 99/106/101 98/107/102 2/108/1
f 2/108/1 98/107/102 97/109/103
f 2/108/1 97/109/103 96/110/104
f 96/110/104 97/109/103 86/111/105
f 96/110/104 86/111/105 64/112/106
f 64/112/106 86/111/105 63/113/107
f 63/113/107 86/111/105 76/114/108
f 63/113/107 76/114/108 62/115/109
f 62/115/109 76/114/108 66/116/110
f 62/115/109 66/116/110 61/81/76
f 61/81/76 66/116/110 67/117/111
f 61/81/76 67/117/111 68/101/96
f 68/101/96 67/117/111 78/103/98
f 64/112/106 65/118/112 96/110/104
f 96/110/104 65/118/112 2/108/1
f 99/106/101 2/108/1 100/119/113
f 100/119/113 2/108/1 1/92/3
f 100/119/113 1/92/3 101/120/114
f 101/120/114 1/92/3 102/121/115
f 101/120/114 102/121/115 91/122/116
f 91/122/116 102/121/115 92/96/91
f 91/122/116 92/96/91 81/98/93
f 59/91/87 58/123/117 95/89/85
f 95/89/85 58/123/117 85/124/118
f 95/89/85 85/124/118 84/87/83
f 84/87/83 85/124/118 74/125/119
f 84/87/83 74/125/119 73/85/81
f 73/85/81 74/125/119 55/83/78
f 58/123/117 57/126/120 85/124/118
f 85/124/118 57/126/120 75/127/121
f 85/124/118 75/127/121 74/125/119
f 74/125/119 75/127/121 55/83/78
f 57/126/120 56/128/122 75/127/121
f 75/127/121 56/128/122 55/83/78
f 67/117/111 66/116/110 77/129/123
f 77/129/123 66/116/110 76/114/108
f 77/129/123 76/114/108 87/130/124
f 87/130/124 76/114/108 86/111/105
f 87/130/124 86/111/105 97/109/103
f 70/99/94 69/100/95 80/131/125
f 80/131/125 69/100/95 79/102/97
f 80/131/125 79/102/97 90/132/126
f 90/132/126 79/102/97 89/104/99
f 90/132/126 89/104/99 100/119/113
f 100/119/113 89/104/99 99/106/101
f 83/86/82 72/84/80 82/97/92
f 82/97/92 72/84/80 71/82/79
f 88/105/100 78/103/98 77/129/123
f 77/129/123 78/103/98 67/117/111
f 88/105/100 77/129/123 87/130/124
f 91/122/116 81/98/93 80/131/125
f 80/131/125 81/98/93 70/99/94
f 91/122/116 80/131/125 90/132/126
f 94/88/84 83/86/82 93/95/90
f 93/95/90 83/86/82 82/97/92
f 98/107/102 88/105/100 87/130/124
f 98/107/102 87/130/124 97/109/103
f 101/120/114 91/122/116 90/132/126
f 101/120/114 90/132/126 100/119/113
f 103/94/89 92/96/91 102/121/115
f 105/90/86 94/88/84 104/93/88
f 104/93/88 94/88/84 93/95/90
f 1/92/3 103/94/89 102/121/115
f 60/133/127 106/134/128 61/135/129
f 61/135/129 106/134/128 5/136/130
f 61/135/129 5/136/130 18/137/131
f 18/137/131 5/136/130 19/138/132
f 19/138/132 5/136/130 20/139/133
f 18/137/131 17/140/134 61/135/129
f 61/135/129 17/140/134 16/141/135
f 61/135/129 16/141/135 62/142/136
f 62/142/136 16/141/135 15/143/137
f 62/142/136 15/143/137 63/144/138
f 63/144/138 15/143/137 64/145/139
f 64/145/139 15/143/137 14/146/140
f 64/145/139 14/146/140 65/147/141
f 65/147/141 14/146/140 2/148/142
f 2/148/142 14/146/140 51/149/143
f 2/148/142 51/149/143 3/150/144
f 53/151/145 6/152/6 106/153/146
f 106/153/146 6/152/6 5/154/5
f 60/155/147 54/156/148 106/157/149
f 106/157/149 54/156/148 53/158/150
# 106 vertices
# 158 texture params
# 150 normals
# 208 facets

# 1 groups
